<svg xmlns="http://www.w3.org/2000/svg" viewBox="0 0 99.67 33.17"><defs><style>.cls-1{fill:#2f4858;}.cls-2{fill:#e23;}.cls-3{fill:#ee2032;}.cls-4{font-size:5.35px;fill:#231f20;font-family:Poppins-Regular, Poppins;letter-spacing:2em;}</style></defs><title>logosvg</title><g id="Layer_2" data-name="Layer 2"><g id="Layer_1-2" data-name="Layer 1"><path class="cls-1" d="M14.86,28.37v4.77L6.78,28.47A13.59,13.59,0,0,1,0,16.73V7.58l4.14,2.1v7.05a9.45,9.45,0,0,0,4.7,8.16Z"/><polygon class="cls-1" points="16.12 28.49 24.16 28.49 16.14 33.17 16.12 28.49"/><polygon class="cls-1" points="30.9 10.11 26.77 10.11 26.77 9.67 30.89 7.55 30.9 10.11"/><path class="cls-2" d="M30.14,6.92,26,9.3,18.66,5.06a7,7,0,0,0-7,0L4.53,9.19.14,7,9.63,1.48a11.14,11.14,0,0,1,11.09,0Z"/><path class="cls-1" d="M89.68,17.37c0,1.65-1.45,2.35-3.09,2.35s-2.66-.46-3.21-1.81l1.16-.6a2.1,2.1,0,0,0,2.07,1.17c.88,0,1.7-.31,1.7-1.11s-.73-1-1.71-1.08c-1.38-.16-2.67-.51-2.86-1.86a2.13,2.13,0,0,1,0-.37c0-1.51,1.49-2.13,2.85-2.14a3.11,3.11,0,0,1,2.71,1.15c.06.09.12.2.18.31l-1.1.57a1.55,1.55,0,0,0-.54-.5,2.34,2.34,0,0,0-1.21-.32c-1,0-1.52.43-1.52,1v0c0,.63.76.8,1.64.91C88.25,15.22,89.68,15.62,89.68,17.37Z"/><path class="cls-3" d="M25.37,17.37c0,1.65-1.45,2.35-3.09,2.35s-2.67-.46-3.21-1.81l1.15-.6a2.11,2.11,0,0,0,2.08,1.17c.87,0,1.69-.31,1.69-1.11s-.73-1-1.7-1.08c-1.51-.18-2.9-.58-2.9-2.23a1.66,1.66,0,0,1,0-.32c.2-1.28,1.57-1.81,2.82-1.82a3,3,0,0,1,2.9,1.46L24,14a2.07,2.07,0,0,0-1.74-.82c-1,0-1.53.43-1.53,1v0c0,.63.77.8,1.64.91C23.94,15.22,25.37,15.62,25.37,17.37Z"/><path class="cls-3" d="M34.55,17l-2.15-4.8H30.88l-1.75,3.9-1.55,3.46h1.5l.63-1.39h3.85l.62,1.39H35.7Zm-4.28-.12.23-.53,1.14-2.61,1.31,3,.06.12Z"/><polygon class="cls-3" points="44.45 12.16 44.45 19.53 43.59 19.53 43.59 19.54 42.23 17.8 39.72 14.57 39.72 19.53 38.33 19.53 38.33 12.17 39.45 12.17 43.06 16.73 43.06 12.16 44.45 12.16"/><rect class="cls-3" x="47.47" y="15.51" width="3.88" height="1.18"/><path class="cls-1" d="M60.94,17.84l-2.55-5.67H56.87l-2.67,6-.63,1.39h1.51l.63-1.39h3.85l.62,1.39h1.51Zm-3.31-4.13L59,16.85H56.26Z"/><path class="cls-1" d="M70.41,15.27v3.1a3.63,3.63,0,0,1-2.93,1.33,3.55,3.55,0,0,1-3.58-2.1,4.38,4.38,0,0,1-.31-1.66,3.74,3.74,0,0,1,3.89-4,3.89,3.89,0,0,1,2.73,1.12l-.86.89a2.78,2.78,0,0,0-1.87-.74,2.51,2.51,0,0,0-2.54,2.71,2.57,2.57,0,0,0,.46,1.52,2.36,2.36,0,0,0,2.08.95,2.46,2.46,0,0,0,1.66-.59V16.51H67.26V15.27Z"/><path class="cls-1" d="M80.62,15.11A3.6,3.6,0,0,0,76.9,12a3.68,3.68,0,0,0-3.78,3.88,5.12,5.12,0,0,0,0,.56A3.54,3.54,0,0,0,76.9,19.7a3.62,3.62,0,0,0,3.78-3.81A5.12,5.12,0,0,0,80.62,15.11ZM76.9,18.43a2.28,2.28,0,0,1-2.39-2.19,3.16,3.16,0,0,1,0-.32,2.4,2.4,0,0,1,2.42-2.64,2.28,2.28,0,0,1,2.37,2.1,1.93,1.93,0,0,1,0,.53A2.33,2.33,0,0,1,76.9,18.43Z"/><text class="cls-4" transform="translate(19.07 26.28)">safety</text></g></g></svg>