<svg xmlns="http://www.w3.org/2000/svg" xmlns:xlink="http://www.w3.org/1999/xlink" viewBox="0 0 59.61 59.61"><defs><style>.cls-1{fill:none;}.cls-2{clip-path:url(#clip-path);}.cls-3{fill:#fbbc05;}.cls-4{fill:#FCA29D}.cls-5{fill:#34a853;}.cls-6{fill:#4285f4;}</style><clipPath id="clip-path"><path class="cls-1" d="M55.26,24.84H29.8V35.39H44.46C43.09,42.1,37.38,46,29.8,46a16.15,16.15,0,0,1,0-32.29,15.82,15.82,0,0,1,10.06,3.6l8-8a27.31,27.31,0,1,0-18,47.82c13.67,0,26.08-9.94,26.08-27.33A22.16,22.16,0,0,0,55.26,24.84Z"/></clipPath></defs><title>sanagosgoogle</title><g id="Layer_2" data-name="Layer 2"><g id="Слой_1" data-name="Слой 1"><g class="cls-2"><path class="cls-3" d="M0,46V13.66L21.11,29.8Z"/></g><g class="cls-2"><path class="cls-4" d="M0,13.66,21.11,29.8l8.69-7.57,29.81-4.84V0H0Z"/></g><g class="cls-2"><path class="cls-5" d="M0,46,37.26,17.39l9.81,1.24L59.61,0V59.61H0Z"/></g><g class="cls-2"><path class="cls-6" d="M59.61,59.61,21.11,29.8l-5-3.72L59.61,13.66Z"/></g></g></g></svg>