<?xml version="1.0" encoding="utf-8"?>
<!-- Generator: Adobe Illustrator 23.0.0, SVG Export Plug-In . SVG Version: 6.00 Build 0)  -->
<svg version="1.1" id="Layer_1" xmlns="http://www.w3.org/2000/svg" xmlns:xlink="http://www.w3.org/1999/xlink" x="0px" y="0px"
	 viewBox="0 0 16 16" style="enable-background:new 0 0 16 16;" xml:space="preserve">
<style type="text/css">
	.st0{fill:currentColor;}
</style>
<path class="st0" d="M12.7,2C13.4,2,14,2.6,14,3.3v9.3c0,0.7-0.6,1.3-1.3,1.3H3.3C2.6,14,2,13.4,2,12.7V3.3C2,2.6,2.6,2,3.3,2H12.7
	 M12.3,12.3V8.8c0-1.2-1-2.2-2.2-2.2C9.6,6.6,8.9,7,8.6,7.5V6.8H6.8v5.6h1.9V9c0-0.5,0.4-0.9,0.9-0.9c0.5,0,0.9,0.4,0.9,0.9v3.3
	H12.3 M4.6,5.7c0.6,0,1.1-0.5,1.1-1.1c0-0.6-0.5-1.1-1.1-1.1S3.5,4,3.5,4.6C3.5,5.2,4,5.7,4.6,5.7 M5.5,12.3V6.8H3.7v5.6L5.5,12.3z"
	/>
</svg>
