<?xml version="1.0" encoding="utf-8"?>
<!-- Generator: Adobe Illustrator 23.0.0, SVG Export Plug-In . SVG Version: 6.00 Build 0)  -->
<svg version="1.1" id="Слой_1" xmlns="http://www.w3.org/2000/svg" xmlns:xlink="http://www.w3.org/1999/xlink" x="0px" y="0px"
	 viewBox="0 0 65.7 65.8" style="enable-background:new 0 0 65.7 65.8;" xml:space="preserve">
<style type="text/css">
	.st0{clip-path:url(#SVGID_2_);fill:#FBBC05;}
	.st1{clip-path:url(#SVGID_4_);fill:#EA4335;}
	.st2{clip-path:url(#SVGID_6_);fill:#34A853;}
	.st3{clip-path:url(#SVGID_8_);fill:#4285F4;}
</style>
<g>
	<g>
		<defs>
			<path id="SVGID_1_" d="M59,27.6H33.5v10.6h14.7c-1.4,6.7-7.1,10.6-14.7,10.6c-8.9,0-16.1-7.2-16.1-16.1s7.2-16.1,16.1-16.1
				c3.8,0,7.3,1.4,10.1,3.6l7.9-7.9c-4.8-4.2-11.1-6.8-18-6.8C18.4,5.3,6.2,17.4,6.2,32.6s12.2,27.3,27.3,27.3
				c13.7,0,26.1-9.9,26.1-27.3C59.6,31,59.4,29.2,59,27.6z"/>
		</defs>
		<clipPath id="SVGID_2_">
			<use xlink:href="#SVGID_1_"  style="overflow:visible;"/>
		</clipPath>
		<path class="st0" d="M3.7,48.7V16.5l21.1,16.1L3.7,48.7z"/>
	</g>
	<g>
		<defs>
			<path id="SVGID_3_" d="M59,27.6H33.5v10.6h14.7c-1.4,6.7-7.1,10.6-14.7,10.6c-8.9,0-16.1-7.2-16.1-16.1s7.2-16.1,16.1-16.1
				c3.8,0,7.3,1.4,10.1,3.6l7.9-7.9c-4.8-4.2-11.1-6.8-18-6.8C18.4,5.3,6.2,17.4,6.2,32.6s12.2,27.3,27.3,27.3
				c13.7,0,26.1-9.9,26.1-27.3C59.6,31,59.4,29.2,59,27.6z"/>
		</defs>
		<clipPath id="SVGID_4_">
			<use xlink:href="#SVGID_3_"  style="overflow:visible;"/>
		</clipPath>
		<path class="st1" d="M3.7,16.5l21.1,16.1l8.7-7.6l29.8-4.8V2.8H3.7V16.5z"/>
	</g>
	<g>
		<g>
			<defs>
				<path id="SVGID_5_" d="M59,27.6H33.5v10.6h14.7c-1.4,6.7-7.1,10.6-14.7,10.6c-8.9,0-16.1-7.2-16.1-16.1s7.2-16.1,16.1-16.1
					c3.8,0,7.3,1.4,10.1,3.6l7.9-7.9c-4.8-4.2-11.1-6.8-18-6.8C18.4,5.3,6.2,17.4,6.2,32.6s12.2,27.3,27.3,27.3
					c13.7,0,26.1-9.9,26.1-27.3C59.6,31,59.4,29.2,59,27.6z"/>
			</defs>
			<clipPath id="SVGID_6_">
				<use xlink:href="#SVGID_5_"  style="overflow:visible;"/>
			</clipPath>
			<path class="st2" d="M3.7,48.7L41,20.2l9.8,1.2L63.3,2.8v59.6H3.7V48.7z"/>
		</g>
	</g>
	<g>
		<g>
			<defs>
				<path id="SVGID_7_" d="M59,27.6H33.5v10.6h14.7c-1.4,6.7-7.1,10.6-14.7,10.6c-8.9,0-16.1-7.2-16.1-16.1s7.2-16.1,16.1-16.1
					c3.8,0,7.3,1.4,10.1,3.6l7.9-7.9c-4.8-4.2-11.1-6.8-18-6.8C18.4,5.3,6.2,17.4,6.2,32.6s12.2,27.3,27.3,27.3
					c13.7,0,26.1-9.9,26.1-27.3C59.6,31,59.4,29.2,59,27.6z"/>
			</defs>
			<clipPath id="SVGID_8_">
				<use xlink:href="#SVGID_7_"  style="overflow:visible;"/>
			</clipPath>
			<path class="st3" d="M63.3,62.4L24.8,32.6l-5-3.7l43.5-12.4V62.4z"/>
		</g>
	</g>
</g>
</svg>
