<?xml version="1.0" encoding="utf-8"?>
<!-- Generator: Adobe Illustrator 23.0.0, SVG Export Plug-In . SVG Version: 6.00 Build 0)  -->
<svg version="1.1" id="Layer_1" xmlns="http://www.w3.org/2000/svg" xmlns:xlink="http://www.w3.org/1999/xlink" x="0px" y="0px"
	 viewBox="0 0 16 16" style="enable-background:new 0 0 16 16;" xml:space="preserve">
<style type="text/css">
	.st0{fill-rule:evenodd;clip-rule:evenodd;fill:currentColor;}
</style>
<path class="st0" d="M8,0C7.3,0,6.2,0.3,5.1,0.6C4,0.9,2.8,1.2,2.2,1.4c-0.6,0.2-1,0.7-1,1.3c-0.6,4.5,0.8,7.8,2.5,10
	c0.7,0.9,1.6,1.8,2.5,2.5c0.4,0.3,0.7,0.5,1.1,0.6C7.4,15.9,7.8,16,8,16s0.5-0.1,0.8-0.2c0.4-0.2,0.7-0.4,1.1-0.6
	c1-0.7,1.8-1.5,2.5-2.5c1.7-2.2,3.1-5.5,2.5-10c-0.1-0.6-0.5-1.1-1-1.3c-1-0.3-1.9-0.6-2.9-0.9C9.8,0.3,8.7,0,8,0z M10.1,5.1
	c0.2-0.2,0.5-0.2,0.7,0c0.2,0.2,0.2,0.5,0,0.7l-3,3C7.8,8.9,7.6,9,7.5,9C7.4,9,7.2,8.9,7.1,8.9L5.6,7.4c-0.2-0.2-0.2-0.5,0-0.7
	c0.2-0.2,0.5-0.2,0.7,0l1.1,1.1L10.1,5.1z"/>
</svg>
