<?xml version="1.0" encoding="utf-8"?>
<!-- Generator: Adobe Illustrator 23.0.0, SVG Export Plug-In . SVG Version: 6.00 Build 0)  -->
<svg version="1.1" id="Layer_1" xmlns="http://www.w3.org/2000/svg" xmlns:xlink="http://www.w3.org/1999/xlink" x="0px" y="0px"
	 viewBox="0 0 157.6 158.3" style="enable-background:new 0 0 157.6 158.3;" xml:space="preserve">
<style type="text/css">
	.st0{fill:"currentColor";}
</style>
<path class="st0" d="M78.8,134.8c-18.6,0-36-9.3-46.4-24.7c0.2-15.5,31-24,46.4-24s46.2,8.5,46.4,24
	C114.8,125.6,97.4,134.8,78.8,134.8 M78.8,24.9c12.8,0,23.2,10.4,23.2,23.2S91.6,71.4,78.8,71.4S55.6,61,55.6,48.2
	S66,24.9,78.8,24.9 M78.8,1.7C36,1.7,1.4,36.4,1.4,79.1c0,0,0,0,0,0c0,42.7,34.6,77.4,77.4,77.4c0,0,0,0,0,0
	c42.7,0,77.4-34.7,77.4-77.4S121.5,1.7,78.8,1.7z"/>
</svg>
