<?xml version="1.0" encoding="utf-8"?>
<!-- Generator: Adobe Illustrator 23.0.0, SVG Export Plug-In . SVG Version: 6.00 Build 0)  -->
<svg version="1.1" id="Layer_1" xmlns="http://www.w3.org/2000/svg" xmlns:xlink="http://www.w3.org/1999/xlink" x="0px" y="0px"
	 viewBox="0 0 157.6 158.3" style="enable-background:new 0 0 157.6 158.3;" xml:space="preserve">
<style type="text/css">
	.st0{fill:"currentColor";}
</style>
<path class="st0" d="M134.5,23C119.9,8.2,99.9-0.1,79,0C35.9,0,0.7,35.2,0.6,78.4c0,13.8,3.7,27.3,10.5,39.2L0,158.3l41.5-10.9
	c11.6,6.2,24.4,9.5,37.5,9.5h0.1c43.2,0,78.3-35.1,78.4-78.4C157.6,57.7,149.3,37.7,134.5,23z M117.5,106.4
	c-1.7,4.6-9.5,8.8-13.3,9.4c-3.4,0.4-7.6,0.7-12.4-0.8c-2.9-1-6.5-2.2-11.2-4.2C61,102.4,48.3,82.6,47.3,81.3c-1-1.4-8-10.7-8-20.3
	c0-9.7,5-14.4,6.8-16.4c1.3-1.5,3.3-2.4,5.2-2.4h3.8c1.2,0.1,2.8-0.5,4.4,3.4c1.7,4,5.6,13.6,6.1,14.5c0.5,1,0.8,2.2,0.1,3.5
	c-0.6,1.3-1,2.2-2,3.3c-1,1.1-2.1,2.6-2.9,3.5c-1,0.9-2,2-0.9,4c1.2,2,5,8.4,10.9,13.6c7.5,6.7,13.8,8.8,15.7,9.8
	c2,0.9,3.2,0.8,4.3-0.5c1.2-1.3,4.9-5.7,6.2-7.7c1.3-2,2.6-1.6,4.5-1c1.8,0.7,11.4,5.4,13.4,6.4c2,1,3.3,1.5,3.8,2.3
	C119.1,97.9,119.1,101.9,117.5,106.4z"/>
</svg>
